<svg width="97" height="124" fill="none" xmlns="http://www.w3.org/2000/svg"><path d="m2.069 100.727 29.6-96.91 6.863-.979 36.702 11.18 14.285 5.029 5.49 3.155-29.582 97.242-1.957 1.908-59.615-17.163-1.786-3.462Z" fill="#CB9470"/><path d="M54.241 76.445c.022.09.03.192.029.3a1.271 1.271 0 0 0-.733-.555c.175-.069.347-.115.449-.084l.015.006c.086.045.19.124.24.333ZM43.328 74.2a.641.641 0 0 1 .151.072 2.282 2.282 0 0 0-.03-.23c-.035.041-.075.092-.121.158Zm-.259 9.746c.058-.026.114-.058.222-.062.096-.066.19-.125.284-.193-.128.054-.319.25-.613.116.055.084.07.087.107.139Zm-11.072 6.112c-.238-.426-.578-.771-.856-1.156-.025.806-.287 2.85.183 5.02.13.603.357 1.187.625 1.749-.319-1.594-.313-2.024-.324-3.885-.001-.093.136-.084.141.006.083 1.384.472 3.75.963 4.909-.543-2.913.625-4.199-.732-6.643Zm-9.89-2.603c.197-.75.289-1.496.305-2.26-.232.48-.622 1.1-.305 2.26Zm5.105-20.814c.1 1.23-.085 2.442-.313 3.669-.321 1.725-.65 3.553-1.283 5.193-.025.066-.135.053-.127-.022.168-1.524.643-3.02.96-4.517.275-1.302.601-2.688.602-4.047-1.09 5.077-3.522 9.232-2.588 13.762.055-.674.351-2.867.866-4.152.032-.078.154-.04.126.04-.291.834-.383 1.71-.459 2.584-.046.535-.093 1.067-.119 1.6.146-.546-.058-.43.668-3.16.022-.085.15-.043.129.042a20.728 20.728 0 0 0-.4 2.364c.158-.316.32-.615.447-.884 2.078-4.412 2.508-7.144 1.49-12.472Zm-1.23 14.576c.054-.08.163-.004.122.08-.15.307-.367.577-.462.906.455-.349.987-1.54 1.226-2.058-.69.452-1.307 1.11-1.61 1.855l.048.09c.153-.34.465-.568.675-.873Zm-8.409-2.125c.29.627.445 1.277.649 1.935.67 2.16 2.523 4.54 3.179 5.637-.901-3.926-1.052-6.025-2.863-8.075-.462-.523-.978-.976-1.411-1.507.065 1.241-.08 3.752 1.06 6.512.596 1.44 1.751 2.49 2.875 3.549-.154-.28-.29-.57-.446-.822-.486-.788-1.016-1.546-1.473-2.353-.396-.7-.713-1.454-.986-2.209-.313-.87-.372-1.771-.632-2.65-.008-.027.036-.043.048-.017Zm-4.837 6.436c1.013.113 1.919.294 2.861.703.42.183.934.4 1.38.681.01 0 .02-.002.03 0-2.217-2.028-3.596-1.905-5.063-1.94-.578-.013-1.218-.125-1.821-.096 4.27 1.952 4.1 1.777 5.58 1.904-.885-.452-2.01-.962-2.975-1.206-.026-.006-.018-.05.008-.046ZM95.226 24.2 66.24 119.63c-.626 2.061-2.845 3.228-4.93 2.595l-56.955-17.3c-2.085-.634-3.28-2.838-2.654-4.899L30.688 4.597c.626-2.06 2.844-3.228 4.93-2.594l15.373 4.67a4.168 4.168 0 0 1 1.78.142l22.736 6.906c.595.18 1.12.484 1.558.872l15.507 4.71c2.086.633 3.28 2.838 2.654 4.898ZM48.008 9.751l-.061.2a3.715 3.715 0 0 0 2.467 4.62l22.737 6.907a3.715 3.715 0 0 0 4.62-2.468l.061-.2a3.715 3.715 0 0 0-2.467-4.621L52.629 7.283a3.715 3.715 0 0 0-4.621 2.467ZM73.34 35.21c-.213-.03-.223.274-.056.345.556.238 1.138.382 1.725.509-.377.249-.749.52-1.012.865-.11.146.056.354.222.31.357-.096.675-.295.98-.512-.227.749-.415 1.568-.272 2.289.065.332.501.291.61.019.213-.534.328-1.13.429-1.73.18.208.373.396.581.536.22.146.715-.154-.425-1.45l.012-.066c.6.182 1.18.457 1.795.538.145.02.263-.176.183-.296-.306-.462-.827-.74-1.43-.918.271-.197.545-.39.824-.575.263-.174.046-.605-.235-.44-.284.168-.564.338-.842.512.198-.683.41-1.376.428-2.073.003-.142-.186-.198-.263-.08-.462.72-.73 1.596-.987 2.435-.12-.017-.24-.03-.358-.043a12.085 12.085 0 0 1-.87-1.116c-.151-.225-.491-.052-.375.2.137.299.3.578.478.847-.421-.033-.815-.06-1.142-.106Zm4.963-16.27.031-.111-.03.111Zm-.007.024-.02.068.02-.068Zm6.846 4.556c-.714.27-1.399.583-2.09.902-.08.036-.029.193.062.193 1.252 0 1.84-.178 3.218-.486.448-.101.692-.519 1.126-.646.116-.034.055-.215-.064-.205-.336.028-.704-.165-1.034-.124-.436.055-.816.214-1.218.366Zm2.006-3.22c.041.026.08.049.126.064.116.04.148-.148.031-.188-.18-.063-.223.082-.157.124ZM70.183 99.897c.268-.887.615-1.864.77-2.996l-.126.418c.318-1.79.355-3.852-.556-5.442a.738.738 0 0 0-.015-.233c-.26-1.133-1.021-2.058-1.633-2.802-.476-.578-.758-.914-1.317-1.337a.802.802 0 0 0-.063-1.207c-3.173-2.494-5.457-3.007-5.799-3.151-1.949-.592-3.816-.257-5.574.215-.439-2.022-.937-1.77-.1-3.46.09-.181.182-.369.265-.562.474-1.101.715-2.528.643-3.816-.06-1.063-.554-1.813-1.357-2.057-1.164-.353-2.426.438-3.395 1.075l-.22.144c-.772.502-1.602.988-2.294 1.672-.318-.129-.636-.225-.928-.334-.857-.317-1.983-.648-2.903-.673.057-.552-.014-1.11-.079-1.618l-.01-.084c-.12-.948-.384-1.772-.787-2.45a.706.706 0 0 0-.944-.272c-.791.422-1.282 1.333-1.677 2.065-.576 1.07-1.254 2.244-1.613 3.894-1.091.851-2.437 3.012-2.543 5.37-.519-.027-1.026.004-1.45.03-.697.042-.712 1.086.003 1.12.226.01.444.024.653.042-.571.113-1.124.298-1.632.48-.513.186-.489.915.015 1.068.107.032.22.031.33-.003.616-.19 1.314-.37 1.995-.362-1.285.463-2.293 1.223-2.951 1.829a.536.536 0 0 0 .701.812 7.178 7.178 0 0 1 2.96-1.41c.265.704.736 1.814 1.562 2.343-.389 1.018-.56 2.742-.121 4.156-.255.117-.5.24-.72.353-.21.106-.66.261-1.201.69-.482.324-1.43 1.094-1.347 1.666-.542 1.038-.38 1.363-.606 2.44 0 .133.018.26.047.383l.384.117c.004-.307.097-.636.198-.898-.074-.696.163-1.406.525-2.023a.12.12 0 0 1-.051-.164c.245-.441.672-.813 1.139-1.127.313-.25.654-.442 1.023-.591.4-.207.824-.42 1.228-.58-.698-1.61-.342-3.88.163-4.657-1.002-.266-1.564-1.69-1.907-2.669-1.303.223-2.51.729-3.582 1.589-.047.036-.109-.028-.064-.07.977-.9 2.199-1.634 3.51-1.945a8.302 8.302 0 0 1-.16-.657c-.952-.201-1.961.028-2.873.308-.088.028-.116-.107-.032-.137.88-.315 1.885-.637 2.839-.54a7.741 7.741 0 0 1-.079-.715 13.224 13.224 0 0 0-1.923-.218c-.093-.004-.088-.136.003-.142.844-.052 1.191-.061 1.905.021-.035-1.43.336-2.824 1.209-4.176.33-.511.757-1.082 1.29-1.45.263-1.262.74-2.406 1.386-3.546.425-.748.9-1.841 1.694-2.264a.218.218 0 0 1 .293.089c.407.683.623 1.476.722 2.262.085.669.192 1.417-.005 2.072a.151.151 0 0 1-.07.086c1.1-.13 2.336.227 3.383.615.392.146.829.27 1.215.463.685-.77 1.586-1.292 2.444-1.85.701-.456 1.459-.997 2.292-1.172 1.205-.256 1.859.46 1.925 1.627.064 1.151-.145 2.529-.604 3.596-.363.844-.952 1.631-.693 2.582.2.737.5 1.483.583 2.249 1.941-.548 3.855-.966 5.838-.36 2.065.63 3.938 1.737 5.628 3.066.24.187.09.618-.234.511-.262-.085-.596-.217-.88-.16 1.327 1.02 1.335.804 2.418 2.118.634.772 1.305 1.606 1.533 2.6a.248.248 0 0 1-.035.192c.071.12.142.24.206.364.737 1.419.672 3.306.41 4.84a13.812 13.812 0 0 1-2.003 5.136c-1.095 1.691-2.844 3.246-4.827 3.92l.91.277c.907-.628 2.765-1.519 4.328-3.93.412-.636.774-1.311 1.08-2.011l-.186.614a11.204 11.204 0 0 1 .317-.558c.022-.063.043-.126.062-.191.049-.17.091-.34.142-.51ZM37.175 8.024c-.094-.074-.245.042-.168.135.29.348.26.83.577 1.163.976 1.025 1.365 1.499 2.404 2.194.075.05.204-.052.159-.126-2.427-3.97-2.17-2.725-2.972-3.366Zm1.72-2.354c.075.02.19.039.205-.034.017-.08-.053-.121-.127-.14-.118-.032-.197.143-.078.174Zm9.315 15.676c-2.246-.163-4.86-.282-7.041.159 6.69.114 12.838 4.242 15.281 10.674-.01.185-.026.369-.046.553.329 1.322-.575 2.905-1.492 3.83.13.646.105 1.297.568 1.825.088.101.02.244-.105.258-.01.068-.055.133-.124.153-.733.207-1.193 1.01-1.608 1.592-1.091 1.528-2.042 2.182-1.854 2.785.186.599.668.583 1.167.736.666.205 1.151.626 1.82.482a.243.243 0 0 1 .078-.113c.294-.25-.076-.765-.35-.868-.065-.024-.06-.095-.017-.125a.855.855 0 0 1-.126-.151c-.025-.037.035-.078.063-.045.246.291.67.198.952.42.25.197.416.473.627.708.526.585 1.122 1.096 1.66 1.666.01.013-.006.033-.02.023-.876-.602-1.435-1.553-2.454-2.207.327.417.248.812-.01.978-.298.604-1.065.282-1.713.027a.238.238 0 0 1-.029.08c.042.255-.088.513-.268.733.533.142.944 1.203 1.504 1.709.36.326.73.266.901.308.22-.052.432-.16.638-.246-.119-.183-.246-.365-.338-.56-.023-.047.034-.084.072-.05.22.191.837 1 .967 1.23.072.128-.12.271-.213.151-.123-.158-.224-.332-.326-.505-.233.07-.532.187-.832.27-.232.22-.529.203-.806.08-.599-.036-1.114-.64-1.636-.996-.03-.01-.06-.02-.093-.027-.648.923.351 1.052.173 1.568a.211.211 0 0 1-.095.117c-.227.895-1.161.939-1.991.933-.798-.005-1.102.32-1.296 1.092-.165.657-.1 1.295-.146 1.96-.01.134-.18.214-.276.104a1.794 1.794 0 0 1-.373-.788c-5.914 3.142-12.961 2.32-17.968-1.53.747.839 1.548 1.487 2.477 2.144.087.061.026.196-.077.169-1.352-.356-2.677-1.853-4.216-3.704a19.993 19.993 0 0 0 7.309 8.314c1.191-1.094 2.654-1.052 3.9.41.236-1.839 1.81-3.39 3.751-2.51 1.428.648 2.273 2.068 2.614 3.565.002-.002.003-.005.007-.007 1.095-.769 2.34-.353 3.292.417.143-.393.176-.837.397-1.206.386-.646 2.015-1.603 3.847-1.414.13-.148.361-.129.83-.358.138-.067.247.136.112.21-.15.085-.307.16-.471.216.23.043.46.1.678.176.413-.148.923-.4 1.284-.598.133-.073.239.13.11.207a8.38 8.38 0 0 1-1.033.535c.143.066.28.141.409.227.68-.35 1.687-1.005 2.313-1.461.087-.063.2.051.116.124-.63.537-1.353 1.129-2.13 1.57.166.15.307.324.417.523a19.902 19.902 0 0 0 9.421-11.648c4.386-14.44-8.29-28.327-23.009-25.39 2.13.018 2.715.14 4.832.328.106.01.103.175-.005.168Zm20.419 5.347.037.011c.399-.94 1.195-1.747 1.87-1.804l.003-.01c-.554-.42-.777-1.582-.536-2.615l-.015-.005c-.385 1.001-1.123 1.883-1.91 1.883l-.003.01c.514.42.733 1.512.554 2.53ZM25.613 80.42c.845-1.792 1.952-4.018 2.343-6.317.717-4.2-.563-7.81-.564-9.203 0-.285-.408-.3-.44-.019-.632 5.616-4.195 11.048-2.741 16.31-1.36-1.883-.96-2.388-2.844-6.147-.247-.493-.5-1.082-1.016-1.345-.13-.067-.253.003-.278.143-.15.871.113 1.717.401 2.534.7 1.978.625 2.293 2.563 4.328.436.458.894.938 1.43 1.29.036.04.072.079.11.117.079.132.167.246.265.333.023.025.05.044.08.058l.004.003c.76 2.357 1.555 4.625 1.95 7.103.19 1.201.389 2.497.947 3.595-1.464-1.794-1.793-2.612-2.756-4.521.433-.37.074-1.013-.356-.807a.424.424 0 0 0-.356.125c-.38.41.047.989.516.797.555 2.028 2.004 3.935 3.499 5.381.019.032.037.065.057.097-2.107-1.888-4.058-3.98-5.901-6.203.083-.096.067-.275-.059-.342a9.49 9.49 0 0 0 .256-3.465c-.02-.189-.313-.15-.323.03-.037.68-.526 1.233-.637 1.912-.606-2.803-.974-5.75-2.776-7.755-.666-.742-1.458-1.364-1.948-2.248-.124-.224-.428-.085-.4.148.161 1.328.053 2.67.254 4.003.63 4.176 1.786 5.383 5.316 8.227.03.049.06.099.092.147-1.533-.591-3.126-.877-4.646-1.526-2.07-2.67-3.875-2.6-5.937-2.667-.784-.026-1.615-.213-2.376.033-.21.068-.215.326-.018.415 1.498.665 2.978 1.533 4.555 1.998.913.27 1.869.297 2.805.457-.552.018-1.087.177-1.65.354-.278.088-1.353.324-1.32.735.009.095.046.152.133.19.686.31 1.497.102 2.184-.104.604-.18 1.315-.35 1.874-.684 1.414.8 3.14.999 4.72 1.335h.03c1.48 2.193 3.295 4.224 5.328 6.034-.157-.042-.89-.211-1.53-.357l4.366 1.326c-.453-.35-.9-.71-1.338-1.079-.572-1.552-.274-3.169-.428-4.769.304-.026.53-.322.525-.556a.467.467 0 0 0-.572-.437c-.425-.143-.79.734-.18.956-.133 1.267-.158 2.682.165 3.946-1.095-2.17-1.126-3.137-1.553-5.796-.316-1.967-.887-3.979-1.784-5.788.747-.373 1.56-2.283 1.897-3.047.078-.174-.147-.336-.3-.252-.843.468-1.617 1.147-2.012 2.026.07-.372.229-.744.374-1.052Zm2.422 3.354c.043.236.14.497.296.674.558.632.6 1.303.255 2.038-.06.13-.103.269-.153.404a.535.535 0 0 0 .3-.277c.348-.688.86-1.114 1.673-1.124.17-.002.352-.101.5-.199.072-.049.125-.211.1-.296-.069-.226-.58-.373-1.097.174-.158.167-.246.436-.576.433.002-.533.449-.784.629-1.176l-.35.123c.046-.305.203-1.259.236-1.846.012-.213-.034-.452-.296-.469-.325-.021-.354.27-.345.485.012.292.087.585.163.87.14.516-.003 1.214-.422 1.697-.036-.43-.03-.796-.108-1.143a1.282 1.282 0 0 0-.352-.625c-.193-.179-.5-.002-.453.257Zm1.369-3.724a.795.795 0 1 0 1.461-.63.795.795 0 0 0-1.461.63Zm5.353-6.543c-.266-.02-.516-.038-.723-.066-.134-.02-.14.173-.035.218.352.15.72.241 1.091.322-.238.157-.473.329-.64.547-.07.092.036.223.14.196.226-.06.427-.187.62-.324-.143.474-.262.992-.172 1.448.042.21.317.184.386.011.135-.337.207-.715.271-1.094.114.132.236.25.368.34.148.099.438-.113-.27-.917l.009-.042c.38.115.745.289 1.135.34.091.012.166-.111.115-.187-.193-.292-.522-.468-.904-.581.172-.124.344-.247.521-.363.167-.11.03-.383-.148-.278-.18.105-.357.213-.533.323.126-.432.259-.87.27-1.311.002-.09-.117-.125-.165-.05-.293.455-.463 1.01-.625 1.54a7.702 7.702 0 0 0-.227-.028 7.635 7.635 0 0 1-.55-.705c-.095-.143-.31-.033-.237.126.087.189.19.365.303.535Zm-1.57 23.214c-.1-.48-.17-.965-.213-1.416-.154-1.621.532-3.12-.595-5.207-.39-.724-1.035-1.286-1.256-2.102-.057-.209-.418-.2-.398.037.112 1.382-.372 4.165.376 6.4.355 1.062.844 1.89 1.054 2.24l1.772.539c.188-.685.542-1.29 1.018-2.408a7.357 7.357 0 0 1-.114-.86c-.152.385-.8 1.898-.997 2.357.125-1.173.292-1.791.576-3.539-.052-.047-.103-.091-.241-.234-.11.446-.218.892-.332 1.338.002-.348.008-.687.042-1.009.007-.071-.097-.072-.11-.005-.128.758-.219 1.51-.374 2.265-.069-1.268.024-2.103.277-3.19a4.59 4.59 0 0 1-.244-.39c-.415 1.704-.45 3.475-.24 5.184Zm.888.536.593.18c.134-.312-.02-.46-.16-.42-.152.044-.3.129-.433.24ZM32.88 80.979a.438.438 0 1 0-.346-.804.438.438 0 0 0 .346.804Zm-.823 1.611a.437.437 0 1 0-.803.346.437.437 0 0 0 .803-.346ZM20.98 93.264l-.028.008 4.07 1.236c-.472-.394-.333-1.305-1.257-1.887-.133-.083-.375-.139-.482-.072-.112.071-.19.316-.163.463.058.313.194.611.32.976-.592-.085-.946-.288-1.182-.853-.23-.552-.662-1.025-1.041-1.505-.079-.099-.36-.143-.468-.08-.093.055-.138.323-.093.459.113.325.288.628.439.94l.002.005c-.046.007-.098.03-.137.016a1.603 1.603 0 0 1-.327-.16c-.577-.367-.58-.716-2.011-1.903-.116-.097-.372-.025-.564-.031.031.455-.066.547.356.993.54.577 1.223.918 1.98 1.137.172.049.332.144.586.258Zm10.5-67.727c-.31-.236-.436-.889-.3-1.47l-.009-.002c-.216.563-.63 1.058-1.073 1.058l-.002.006c.289.235.412.85.311 1.421l.021.007c.224-.528.672-.982 1.05-1.014l.003-.006Zm-9.896 30.566a1.083 1.083 0 1 0 2.073.63 1.083 1.083 0 0 0-2.073-.63Zm11.149-39.61c-.142-.178-.53.01-.479.231.033.144.042.265.174.358.14.099.335-.017.414-.148.103-.17-.013-.32-.11-.442ZM17.239 64.041l-.006.019c.712.7.914 2.656.535 4.52l.054.016c.695-1.746 1.962-3.298 2.965-3.478l.005-.02c-.771-.697-.97-2.778-.498-4.677l-.022-.006c-.68 1.856-1.87 3.537-3.033 3.626Zm-3.497 15.447a.915.915 0 1 0-.676 1.7.915.915 0 0 0 .676-1.7Zm20.43-50.386c-.182-.026-.178.2-.037.261 1.921.826 2.572 1.432 3.422 1.92a6.233 6.233 0 0 1-.65.58c-.354.275-.675.608-1.074.816-.084.044-.06.199.045.19.377-.032.721-.162 1.078-.282.298-.1.617-.1.911-.203-.057.594-.024 1.208-.064 1.798-.052.759-.19 1.495-.31 2.245-.014.089.114.093.144.023l.024-.058-.013.062c-.014.074.095.142.133.06.317-.69.613-1.378.991-2.038.324-.564.74-1.105 1.03-1.692.2.279.44.535.654.802.939 1.171.961 1.276 1.08 1.213.019.026.038.052.058.076.032.038.104.014.101-.038-.026-.505-.37-1-.532-1.47-.126-.367-.18-.788-.366-1.134.838.041 1.827-.063 3.766.297.15.029.28-.157.113-.238-1.647-.8-2.638-1.61-3.451-2.082.315-.19.583-.446.867-.677.386-.315.803-.6 1.208-.888.083-.06 0-.183-.087-.164-.488.107-.939.336-1.424.454-.312.076-.63.122-.92.25.062-.605.026-1.232.067-1.833.053-.759.19-1.495.31-2.245.014-.089-.114-.093-.144-.023l-.024.058.013-.062c.014-.074-.095-.142-.133-.06-.317.69-.612 1.378-.991 2.038-.33.575-.755 1.125-1.046 1.726a5.744 5.744 0 0 1-1.33-1.86c-.044-.097-.21-.06-.204.049.03.51.232.965.328 1.46.054.28.05.584.166.844-.776-.022-2.07.052-3.708-.175Zm6.64-16.523c.035.15.082.334.28.36.15.018.362-.062.372-.234.009-.16-.08-.243-.173-.358-.142-.177-.53.01-.479.232Zm5.165 32.463c-.402.079-.783.053-1.114-.21a1.582 1.582 0 0 1-.5-.81c-.073.011-.16-.022-.184-.104-.133-.431-.847-.588-1.019-.089a.254.254 0 0 1-.374.139c-.667-.397-1.27-.926-2.034-1.138-1.398-.395-2.494.85-1.797 2.204.021.04.028.086.026.13.315.557.622.556.945.356.06-.038.136-.082.175-.145.04-.066.046-.017-.025-.058-.257-.15.034-.538.269-.323.433.396-.25.84-.603.92-.413.096-.722-.16-.918-.495a.21.21 0 0 1-.186.003c-.408-.182-1.874-.569-1.743.25.03.193-.183.406-.371.265-.667-.498-1.998-.644-2.913-.434.598.3 1.254.437 1.914.559.006-.091.112-.147.204-.103.825.388 3.35 2.692 3.983 1.046.076-.197.303-.252.458-.105.55.52 1.203.957 1.954 1.01-.602-1.394.744-2.62 1.91-2.258.733.228 1.326 1.489.263 1.662-.27.045-.375-.28-.163-.428.57-.4-.452-.878-.785-.772-1.031.328-1.367 1.589.024 2.567 2.177 1.532 2.85.394 3.299.254a.59.59 0 0 1 .163-.47.14.14 0 0 1 .137-.03c.17.056.062.216.027.328a.857.857 0 0 0-.035.314c.01.017.018.034.024.052.294.856 1.333.916 2.148.915.142-.385.352-.717.623-.926.93-.717 2.099.157 2.874-.71-.22-.266-.473-.588-.446-.942.025-.316.24-.511.498-.65-.248-.03-.356-.208-.308-.399.056-.224.018-.392-.105-.585-.092-.146-.01-.34.128-.42.3-.173.53-.336.686-.622a.227.227 0 0 1 .003-.224 1.276 1.276 0 0 0-.354-.074c-.94-.012-1.95-.904-1.5-1.907.258-.577.807-.856 1.185-1.45-.772-.61-1.764-1.052-2.609-.29-.627.568-.951 1.32-1.1 2.137.124.478.185 1.02.751 1.172.201.055.514.086.632-.137.12-.224-.091-.382-.245-.512-.19-.16.068-.388.253-.303.819.375.458 1.494-.395 1.47-.798-.019-1.337-.679-1.409-1.477-.164-.085-.86-1.389-1.938-1.59-1.264-.242-2.03.914-1.573 2.068a.282.282 0 0 1-.002.24c.134.324.265.691.65.725.743.065.965-.266.563-.379-.13-.036-.154-.23-.029-.29.273-.13.625.12.64.42.02.369-.298.587-.632.653Zm4.02-12.985c-.259-.02-.5-.037-.7-.065-.131-.018-.137.168-.035.212.341.145.697.233 1.057.312-.23.152-.459.318-.62.53-.068.09.035.217.136.19.22-.059.414-.181.6-.314-.138.459-.253.961-.166 1.403.04.204.307.178.374.011.13-.327.2-.693.263-1.06.11.127.228.242.356.328.096.064.201-.031.185-.132-.046-.282-.248-.532-.446-.756l.008-.04c.368.111.723.28 1.1.33.089.011.161-.109.112-.183-.187-.282-.506-.453-.876-.562.166-.12.334-.24.505-.352.161-.107.028-.371-.144-.27a24.86 24.86 0 0 0-.516.313c.122-.418.25-.843.262-1.27.002-.087-.114-.121-.16-.05-.284.443-.449.98-.606 1.493a7.532 7.532 0 0 0-.22-.026 7.415 7.415 0 0 1-.533-.684c-.093-.138-.301-.032-.23.123.084.183.184.354.293.519Zm-19.383 8.66c.188.088.406.176.637.253-.652.587-.424.937.235.339a2.83 2.83 0 0 0 .017.852c.021.112.195.148.25.042.167-.324.215-.68.27-1.037l.026.004c.211.311.44.622.75.832.102.07.205-.052.162-.151a3.345 3.345 0 0 0-.382-.638c.204 0 .4-.025.578-.081.084-.027.136-.166.035-.213-.311-.144-.641-.16-.978-.198l-.032-.045c.213-.18.433-.353.668-.502.143-.09.027-.318-.125-.234-.17.094-.334.194-.496.298.083-.279.182-.552.3-.82.08-.18-.212-.303-.312-.142-.154.25-.3.54-.422.85-.153-.22-.304-.438-.46-.655-.105-.148-.355.032-.258.185.19.3.378.6.57.9-.01.029-.019.058-.027.088a13.903 13.903 0 0 1-.901-.156c-.13-.027-.244.165-.105.23Zm-8.997 31.79a1.081 1.081 0 1 0 2.01.798 1.081 1.081 0 0 0-2.01-.798Zm31.642-25.95c.156.072.296.186.442.3l.01.005c-.384-.575-.313-.49-.606-.785.068.214.165.31.154.48ZM44.14 15.15c.221.067.194-.306.102-.334-.222-.067-.323.267-.102.334Zm2.299-6.03c-.587-.221-.951-.518-1.66-.868-1.02-.503-2.165-.792-3.134-1.363a.225.225 0 0 0-.105-.122c-.581-.335-1.162-.662-1.791-.933-.21-.09-.426.177-.236.3.483.315.925.67 1.408.983.15.324 2.293 1.231 3.453 2.073.45.327.984.792 1.583 1.07.146-.387.306-.767.482-1.14Zm-12.143.572c-.088-.13-.303-.024-.258.125.24.783.597 1.527.77 2.334.137.632.51 1.156.73 1.761.492 1.35.903 2.737 1.504 4.041.292.636 1.475.063 1.164-.564-.635-1.279-1.376-2.516-1.933-3.832-.57-1.344-1.15-2.642-1.977-3.865Zm.685-2.984a.314.314 0 1 0-.601-.183.314.314 0 0 0 .601.183ZM32.18 11.94c-.065-.455-.463-.73-.555-1.174-.025-.118-.21-.071-.21.048.002.337-.22.688-.204 1.02.02.44.148.832.268 1.245.212.732.47 1.44.734 2.153.03.083.19.044.197-.045.1-1.249-.032-1.85-.23-3.247ZM5.324 93.04l-.837 2.757c-.61 2.008.485 4.137 2.434 4.729l54.634 16.595c1.95.592 4.044-.567 4.654-2.576l.837-2.757c.61-2.008-.485-4.136-2.434-4.729L9.978 90.465c-1.95-.592-4.044.567-4.654 2.576Zm32.928 2.35c-.174.131-.49.309-.504.552-.003.044.04.075.08.066.141-.03.189-.123.568-.463.103-.093-.038-.234-.144-.155Zm-.235 1.031c-.381.204-.346.468-.215.447.108-.016.173-.16.322-.247.126-.073.022-.27-.107-.2Zm.528-1.928c-.112.097-.23.186-.345.28-.098.079-.205.159-.247.283-.014.043.029.088.073.076.16-.042.515-.4.632-.516.076-.077-.032-.194-.113-.123Zm-.68 3.393c.013.072.114.1.165.05.094-.096.04-.066.117-.16.09-.109-.095-.26-.19-.158-.079.087-.11.148-.091.268Zm4.154-15.074a.105.105 0 0 0 .1-.085c.03.03.085.029.1-.02.159-.546-.48-1.18-.835-1.508-.436-.403-1.055-.758-1.61-.368-.035.024-.008.079.032.059a.842.842 0 0 1 .326-.086c-.317.45-.465 1.113-.062 1.55.45.487 1.337.488 1.949.458Zm-1.337.394c-.045-.066-.148-.076-.221-.103-.067-.026-.144-.095-.217-.096-.004 0-.007.002-.008.006-.035.129.312.335.44.244.012-.01.017-.036.006-.051Zm2.47-4.998c.157-.142.336-.267.422-.466.037-.085-.069-.136-.135-.11-.231.088-.424.3-.596.472-.167.165-.32.367-.363.603-.018.102.12.188.18.082.125-.228.3-.407.492-.58Zm-.558 1.012c-.174-.035-.326.008-.47.157-.088.092.043.237.135.146a.528.528 0 0 1 .159-.103c.065-.03.124-.069.185-.106.034-.021.038-.084-.009-.094Zm1.383-4.856c-.024-.304-.042-.698-.316-.888-.414-.29-1.027.832-1.438 1.763-.216.493-.377.933-.423 1.082-.02.065.07.105.106.05.554-.855.343-.688 1.112-1.766.032.03.077.05.135.055.184.017.423.61.479.788-.005.23-.002.46.05.686.015.059.082.068.118.034a.076.076 0 0 0 .023-.03c.198-.565.201-1.184.154-1.774Zm-3.739 5.882c-.025 0-.025.035 0 .038.547.079.98.385 1.386.746.314.279.556.645.887.901.04.03.079-.021.065-.059-.186-.447-.605-.833-.977-1.129-.384-.307-.863-.515-1.36-.497Zm.844 5.337c.126-.038.245-.105.359-.185.792-.45.924-.752 2.664.66.117.168.245.332.412.434.034.021.09-.01.076-.054a1.56 1.56 0 0 0-.064-.148.076.076 0 0 0-.004-.09c-.57-.717-.558-.685-.69-.854-.215-.275-.648-.55-.59-.942l.064-.03c.034.034.091.047.14.004.282-.24.889-.467.71-.94-.159-.421-.69-.291-.994-.076-.11-.222-.323-.479-.565-.337-.253.15-.273.382-.197.609-.009.194.12.427.267.595-.069.039-.132.098-.198.14-.136.085-.279.16-.408.258-.354.268-.711.54-1.058.816-.064.051-.002.164.076.14Zm3.278-7.103c.022-.063-.05-.117-.106-.088-.27.145-.443.457-.607.704-.082.125.106.238.194.122.176-.231.42-.46.52-.738Zm-.633 1.34c-.002-.018-.022-.037-.039-.04-.378-.081-.292.287-.116.2.03-.014.17-.026.154-.16Zm1.228-3.022a.093.093 0 0 0-.06-.114c-.118-.039-.237.04-.332.102a2.601 2.601 0 0 0-.324.26c-.123.112.043.277.17.184.34-.246.507-.283.546-.432Zm.13 1.228c.314-.321.496-.419.535-.594.014-.064-.035-.117-.1-.106-.134.021-.24.138-.33.232a3.766 3.766 0 0 0-.273.329c-.076.1.081.228.168.14Zm.863.683c.003-.047-.044-.083-.09-.072-.248.058-.412.4-.527.604-.074.132.106.242.195.124.281-.372.413-.477.422-.656Zm-.654 1.693c-.106-.034-.157.136-.05.166.083.023.15.029.215-.037.062-.06-.08-.102-.165-.129Zm1.038-2.321c-.041.159.19.229.244.074.178-.513.248-.61.209-.749a.092.092 0 0 0-.13-.059c-.163.083-.238.408-.323.734Zm1.462.41c.05-.203.068-.407.04-.616-.025-.182-.052-.42-.236-.508-.042-.02-.081-.006-.1.037-.069.156.008.32.043.477.041.188.045.383.021.573-.016.133.2.166.232.038Zm-.77 2.296c-.062-.026-.125.003-.155.06-.05.099.099.188.144.091a.127.127 0 0 1 .035-.043c.041-.034.016-.09-.025-.108Zm-.345-1.133c-.072.094.08.22.16.133.173-.186.424-.406.454-.67.006-.056-.067-.102-.114-.071-.128.084-.154.156-.5.608Zm-1.336 3.294c-.028.02-.006.065.027.048.62-.305 1.185-.619 1.892-.673.377-.028.746-.033 1.09.15.297.158.492.462.753.668.04.032.094-.025.07-.066-.834-1.478-2.447-1.093-3.832-.127Zm3.49-4.142c.017-.294-.013-1.022-.197-1.266-.044-.057-.12-.018-.143.034-.08.174-.032.367.002.548.04.224.085.448.085.677.001.163.243.17.253.007Zm-.795 2.36c-.014-.021-.033-.03-.055-.043-.076-.043-.117.092-.03.098.026.001.046.004.07-.005.023-.008.03-.03.015-.05Zm.255-1.785c-.02-.036-.055-.047-.092-.042-.203.026-.262.393-.305.547-.049.177.215.257.272.083.107-.32.187-.474.125-.588Zm.374 1.648c-.104.09.038.238.143.155.088-.07.201-.155.215-.273.004-.034-.028-.06-.059-.063-.12-.008-.218.11-.3.181Zm.696-1.761c-.04.158.197.232.244.074.059-.196.098-.469-.03-.644-.03-.042-.097-.027-.122.01-.102.158-.046.384-.092.56Zm1.44 6.113c-.898-.25-2.157-.43-3.054-.124-.101.034-.128.194-.007.224.763.195 1.622.085 2.406.173 1.088.123 2.184.49 2.98 1.262.053.052.136-.024.086-.08-.664-.734-1.46-1.19-2.41-1.455Zm2.795-2.644c.058.116.05.278.174.351.044.027.093-.004.099-.052a.895.895 0 0 0-.09-.397c-.06-.119-.242-.022-.183.098Zm-1.81 6.382c.026.048.11.02.091-.034-.282-.85-.832-1.602-1.52-2.172-.663-.549-1.716-1.213-2.623-.963-.114.033-.115.187-.006.227.802.295 1.534.495 2.258.985.737.498 1.389 1.164 1.8 1.957Zm-1.609 1.202c-.017-.135-.274-.144-.251.06.004.037-.036.11-.021.184.013.176.286-.141.272-.244Zm-2.492 3.014c.027.062.12.09.178.054.085-.053.095-.152.115-.242.038-.168-.192-.238-.255-.078-.033.086-.08.174-.038.266Zm.608-1.556c.048-.164-.197-.237-.253-.077-.076.218-.307.476-.126.543.206.076.339-.33.379-.466Zm.486-.897c.247-.152.363-.52.43-.786.035-.134-.154-.19-.203-.062-.097.246-.33.512-.331.784 0 .05.057.092.104.064Zm-.885-.527c-.041.139-.104.29-.036.428.08.158.389-.048.375-.85-.002-.124-.2-.17-.226-.036-.03.154-.068.307-.113.458Zm-1.081 1.58c-.053.231.392.389.347-.271-.013-.183-.237-.165-.26-.042-.021.107-.063.207-.087.313Zm.75-1.823c.042-.073-.06-.134-.11-.07-.211.274-.099.465-.015.405.079-.058.038-.186.125-.335Zm-1.928 1.835c.01.065.078.113.141.114.213.006.185-.355.192-.557.005-.135-.215-.178-.241-.039-.03.163-.119.312-.092.482Zm-1.03-.752c-.01.163-.047.339-.008.497.026.101.189.148.24.04a.785.785 0 0 0 .034-.565c-.05-.14-.257-.134-.266.028Zm2.38-6.19c.028 0 .04-.04.016-.055-.21-.13-.477-.169-.715-.23-.05-.013-.073.061-.024.079.232.08.475.197.722.206Zm-1.78 5.613c.037.056.11.075.162.028.136-.123.147-.315.18-.486.043-.227.083-.451.115-.68.022-.152-.218-.182-.26-.042-.198.65-.337.965-.197 1.18Zm2.335-6.104c.193-.021 1.814-.393 1.538-.815-.285-.936-2.022-1.832-3.577-.37-.02.02-.014.043.002.054v.001c.128.382.567.649.902.83.337.181.747.343 1.135.3Zm-3.225 4.693c.05-.14-.153-.223-.231-.105-.258.386-.464 1.184.01 1.502.07.046.143-.01.153-.081.055-.377-.198-.575.068-1.316Zm-1.22 1.86c-.036-.1-.213-.142-.236-.007a1.69 1.69 0 0 0-.022.54c.026.16.265.156.307.01.05-.172.01-.379-.05-.543Zm3.24-.414c.02.043.081.06.122.037.122-.07.154-.221.192-.348.044-.144.07-.288.066-.438-.005-.153-.217-.156-.235-.006-.042.35-.237.56-.145.755Zm2.794-6.186c-.076.03-.104.155-.005.18.527.125 1.298-.155 2.201.088.099.026.14-.115.046-.15-.662-.243-1.565-.367-2.241-.118Zm2.92-3.267c.014.056.09.054.108.003.063-.173.054-.366.105-.544.03-.103-.129-.15-.158-.048-.052.182-.1.402-.055.59Zm-1.755-.472a.265.265 0 0 0-.127.165c-.036.152.162.192.207.094.008-.019.012-.04.03-.052.13-.078.018-.287-.11-.207Zm3.933-5.05c-.442-.233-1.133.168-1.51.362-.72.372-1.297.935-1.835 1.53-.022.022.003.066.034.047.506-.3.995-.633 1.503-.924.375-.12.77-.148 1.123.025.39.19.485.646.504 1.084-.175.677-.422 1.339-.468 1.516-.029.114.117.18.185.084.523-.727 1.663-3.095.464-3.724Zm-3.77 3.013c-.019-.111-.184-.07-.168.04.017.115-.001.246.078.34.03.036.082.015.097-.023.042-.107.012-.247-.007-.357Zm-8.513 12.704c.067.04.157-.019.136-.097-.008-.035-.022-.052.001-.08.037-.044.011-.118-.033-.146-.144-.091-.294.21-.104.323Zm.97-3.521c.097-.097.031-.245-.098-.259-.139-.015-.29.037-.434.034a1.323 1.323 0 0 1-.463-.083c-.085-.035-.134.094-.065.142.169.115.33.199.532.242.163.034.4.05.528-.076Zm-.328 2.442c.047.05.149.052.182-.017.085-.177.047-.37.045-.563-.003-.256.06-.504.088-.757.013-.117-.151-.151-.21-.063-.213.323-.407 1.081-.105 1.4Zm-1.149.053c.077.043.151-.007.164-.087.035-.234-.048-.473-.024-.713.024-.244.132-.473.148-.718.008-.137-.165-.167-.237-.072-.273.359-.559 1.302-.05 1.59Zm-1.78 3.172c.761-.166 1.508-.331 2.295-.347 1.78-.037 4.384.532 7.376 2.28 1.528.896 2.842 2.016 4.181 3.165 1.29 1.108 2.824 2.176 3.772 3.614.067.103.213 0 .137-.098a25.694 25.694 0 0 0-1.589-1.826c.67.059 1.622-.342 2.42-.375.04-.001.04-.054.002-.06-1.156-.154-2.001.396-3.008-.17-1.833-1.847-3.956-3.854-6.23-5.14.282-.616.44-1.275.767-1.878.105-.19.326-.777.55-.843.263-.08.534-.137.8-.204.854-.215 1.878-.527 2.434-1.252.049-.065-.051-.143-.108-.09-.43.416-.962.631-1.537.766-.538.127-1.288.36-1.839.27-.13-.023-.3-.004-.367.135-.23.478-.37.977-.545 1.476-.168.472-.413.91-.601 1.372-1.985-1.067-4.641-1.994-6.874-1.784-.71.22-1.4.626-2.036.989Zm17.42-1.72c-.308.217-.637.411-.921.663-.514.455-1.013.978-1.316 1.602-.124.257.105.55.386.415.287-.138.582-.238.878-.337-.504 1.316-.878 2.482-.774 4.037.087-1.375.875-3.495 1.492-4.351.154-.213-.076-.472-.304-.427-.22.044-.433.104-.645.175.986-1.141 1.573-1.196 2.203-1.768.172-.157.118-.496-.126-.55a3.362 3.362 0 0 0-.225-.04c1.29-.436 2.777-.68 4.067-.248a3.498 3.498 0 0 0-.983-.422c-.958-.226-1.975-.113-2.908.157-.952.275-1.336.533-1.835.78.028.106.102.197.219.219.263.05.527.072.793.096Zm3.184-6.545a4.255 4.255 0 0 0-.632-.091c-.264-.02-.556-.075-.817-.051-.1.009-.16.137-.06.198.415.254 1.051.17 1.505.08.067-.013.073-.12.004-.136ZM59.34 88a.986.986 0 0 0-.392 0c-.079.016-.089.148-.005.164.278.05.547.177.697.097.05-.027.056-.09.022-.13-.075-.095-.21-.109-.322-.131Zm-1.25-1.587c-.15.009-.158.241-.006.234.191-.009.405.033.585-.047.046-.02.046-.09.004-.114-.17-.098-.394-.085-.583-.073Zm2.5.856c.16.055.34.138.513.105.049-.01.07-.077.034-.112-.124-.123-.322-.155-.485-.198-.134-.036-.194.16-.063.205Zm2.083-1.171c-.158-.163-.465-.193-.676-.252-.143-.04-.208.174-.067.22.209.069.48.214.702.167.06-.013.083-.092.04-.135Zm-.744 2.891c.085.028.304.126.347-.012.042-.138-.195-.178-.282-.203-.14-.04-.203.17-.065.215Zm-5.043 14.982c.108.157.291.051.194-.05.01.027.009.015-.024-.041-.066-.107-.24-.01-.17.091Zm.2-.602c.09.042.156-.064.148-.14-.014-.126-.225-.367-.31-.462-.096-.106-.277.02-.204.145.094.161.188.377.365.457Zm-.308-15.532c-.145-.103-.359-.052-.523-.045-.14.005-.148.21-.006.219.162.008.379.03.524-.057a.069.069 0 0 0 .005-.117Zm.512-2.697c-.37-.097-.859-.03-1.224.07-.1.026-.092.197.02.187.21-.018.421-.023.632-.028.198-.005.403.001.586-.082.063-.029.05-.13-.014-.147Zm-3.251 15.021a2.16 2.16 0 0 0-1.083-.86c-.116-.04-.201.139-.09.196.399.207.681.583 1.097.756.051.022.105-.046.076-.092Zm-.569.515c-.136-.09-.258.114-.133.21.142.108.334.328.526.318.052-.003.1-.047.084-.103-.054-.192-.32-.322-.477-.425Zm-.458.916c.137.426.64.475.605.317-.046-.206-.277-.236-.375-.404-.068-.118-.275-.053-.23.087Zm.092.764c.123.411.465.366.43.216-.027-.11-.134-.172-.17-.278-.066-.186-.305-.089-.26.062Zm-5.26-1.87h-.002l.006.002c.145.034.197-.032.169-.095-.012-.025-.034-.04-.048-.062v.001c-.011-.028-.028-.052-.03-.082-.004-.069-.049-.128-.123-.13-.203-.006-.141.336.027.366Zm-.06-3.508c.102.093.209.168.326.24.084.052.247.157.34.07.194-.179-.433-.43-.527-.477-.103-.052-.237.077-.14.167Zm.555-.584c.165.08.325.172.509.193.058.007.11-.072.075-.121-.244-.348-.79-.527-1.2-.519-.122.003-.168.2-.035.224.229.043.441.122.651.223Zm-.484 1.602c.061.17.242.438.454.393a.06.06 0 0 0 .046-.056c.001-.14-.143-.263-.293-.448-.074-.092-.248-.004-.207.11Zm-.133 1.238a.513.513 0 0 0 .337.223c.078.011.135-.092.096-.156a.87.87 0 0 0-.275-.257c-.105-.07-.256.054-.158.19Zm-3.034-.41c.138.013.176-.215.04-.242-.449-.088-1.075-.26-1.509-.06-.072.033-.05.133.016.157.273.102.377.03 1.453.144Zm-.503.682c-.374-.055-.996-.13-1.315.126-.05.04-.025.124.032.141.178.05.368-.007.547-.032.242-.033.488-.053.73-.028.135.013.135-.189.006-.207Zm-2.313-4.656c-.019.06.016.145.084.158.133.024.322.107.449.03a.082.082 0 0 0 .033-.109c-.07-.147-.3-.175-.442-.168-.057.002-.107.032-.124.09Zm.328-.668c1.658.02 2.28.46 3.012.615.086.018.159-.079.094-.15-.673-.737-2.21-.816-3.126-.654-.108.02-.087.187.02.189Zm-.413 1.491c.123.052.276.004.406-.005a1.7 1.7 0 0 1 .483.034c.13.028.189-.154.06-.2-.812-.287-1.156.085-.95.171Zm-.057.91c.11.138.257.019.726.069.14.014.18-.222.04-.248-.14-.025-.28-.04-.424-.042-.117-.002-.292-.006-.351.114-.02.038-.017.073.01.106Zm.448.75c-.03-.124-.222-.076-.307-.062-.15.024-.096.257.055.23.08-.015.282-.041.252-.168Zm-.7.996c.027.116.205.076.285.058.137-.03.278-.047.416-.077.155-.033.093-.248-.055-.232-.13.014-.706.005-.647.25Zm.123 1.215.221.067c.085-.02.218-.07.461-.168.096-.038.057-.21-.047-.2-.112.011-.223.02-.334.038-.267.046-.331.178-.3.263Zm3.705-3.963c.074.014.149-.072.085-.135-.427-.424-1.15-.429-1.707-.543-.157-.032-.234.2-.074.241.557.146 1.132.33 1.696.437Zm-.436.67c-.334-.127-.836-.218-1.18-.093-.081.03-.085.129-.005.163.255.107.5.015 1.125.129.13.023.187-.15.06-.198Zm-1.555 1.178c.446.13.933.03 1.39.135.146.033.214-.18.068-.227-.452-.147-1.019-.224-1.472-.047-.063.025-.044.122.014.14Zm22.498-9.549c.07.013.118-.073.053-.116-.532-.356-1.187-.444-1.718-.804-.097-.066-.21.073-.13.156.462.48 1.162.646 1.795.764Zm-1.153 2.536c-.043-.07-.11-.112-.164-.174-.07-.081-.19.032-.121.112.064.074.138.132.238.14.038.003.068-.045.047-.078Zm-1.332-2.456c-.114-.029-.164.135-.053.175.164.058.316.115.492.101.048-.004.063-.057.026-.087-.138-.11-.296-.147-.465-.19Zm3.405 1.979a.676.676 0 0 0-.183-.183c-.077-.059-.16.072-.08.128.067.047.12.108.203.127.04.01.084-.031.06-.072ZM65.4 93.937c.027.196.021.398.061.593.009.042.079.06.1.016.097-.21.076-.434.035-.656-.024-.129-.213-.08-.196.047Zm.02 2.713c.03-.104-.128-.152-.16-.05-.039.122-.09.24-.062.37.006.03.045.041.067.02.095-.092.118-.218.154-.34Zm-.777 2.025c-.01.046-.029.091 0 .133.016.022.036.028.06.018.048-.018.057-.066.075-.11.035-.085-.117-.13-.135-.041Zm3.416-7.463c.102.056.222-.074.004-.427a1.808 1.808 0 0 0-.286-.363c-.084-.08-.225.012-.167.119.067.126.148.245.22.368.061.103.12.244.229.303Zm-.524.61c-.055-.102-.203-.003-.132.094.03.043.088.11.148.078.076-.04.009-.124-.016-.171Zm-.182 3.052c-.01.245-.048.535.023.773.016.052.081.064.113.019.15-.22.096-.536.09-.786-.002-.145-.22-.153-.226-.006Zm-.943 4.737c-.05.152-.157.305-.153.469.001.042.049.081.09.055.153-.098.225-.293.278-.459.044-.138-.17-.203-.215-.065Zm.567-1.482c.003.034.04.045.061.019.013-.017.021-.034.03-.054.036-.074-.104-.122-.09.035Zm1.83-4.835c.013.252.058.845.305.851.319.009-.009-.749-.034-.88-.03-.15-.28-.128-.271.029Zm-.113 4.802c.059-.12.077-.257.104-.387a.124.124 0 0 0-.238-.072c-.045.11-.305.562-.094.626.108.033.188-.086.228-.168Zm-.8 1.434c-.065.107-.167.216-.168.346-.001.069.072.114.133.082.113-.059.174-.194.238-.3.078-.133-.121-.26-.202-.128Zm1.347-4.111c.02-.13-.172-.141-.214-.035-.106.27-.182.614.011.868.026.035.075.026.104.004.265-.197.06-.577.099-.837ZM63.48 80.845a1.083 1.083 0 1 0 .63-2.073 1.083 1.083 0 0 0-.63 2.073Zm17.31-33.22-.003.01c.368.362.473 1.373.277 2.337l.027.009c.36-.904 1.015-1.706 1.534-1.8l.003-.01c-.4-.36-.502-1.436-.258-2.419l-.011-.003c-.353.96-.968 1.83-1.569 1.875Zm5.249-14.532c-.008.153.09.357.26.353.162-.004.237-.1.344-.2.165-.156-.052-.528-.268-.46-.148.047-.327.108-.337.307Zm-8.326 34.115a15.3 15.3 0 0 1 .521-.363c.167-.11.03-.383-.148-.278-.18.105-.357.213-.533.323.126-.432.259-.87.27-1.311.003-.09-.117-.125-.165-.05-.292.455-.463 1.01-.625 1.54a7.662 7.662 0 0 0-.227-.028 7.634 7.634 0 0 1-.55-.705c-.095-.143-.31-.033-.237.126.087.189.19.365.303.535-.266-.02-.516-.038-.723-.066-.134-.02-.14.173-.035.218.352.15.72.241 1.091.322-.238.157-.473.329-.64.547-.07.092.036.223.14.196.226-.06.427-.187.62-.324-.143.474-.262.992-.172 1.448.042.21.317.184.386.011.135-.337.207-.715.271-1.094.114.132.236.25.368.34.098.065.207-.033.19-.137-.047-.291-.256-.549-.46-.78l.009-.042c.38.115.746.289 1.135.34.091.012.166-.111.115-.188-.193-.291-.522-.467-.904-.58Zm-5.76 17.604c.21-.001.412-.026.596-.084.087-.028.14-.172.037-.22-.322-.148-.662-.166-1.01-.204-.01-.016-.022-.031-.033-.047a6.29 6.29 0 0 1 .69-.518c.147-.093.027-.328-.13-.241-.174.098-.344.2-.51.308.084-.288.186-.57.308-.845.082-.188-.218-.314-.322-.147-.158.256-.309.556-.435.875-.157-.225-.314-.45-.474-.674-.109-.154-.367.032-.267.19.197.31.39.62.588.928-.01.03-.02.061-.028.092a14.487 14.487 0 0 1-.93-.161c-.133-.028-.25.17-.108.236.195.09.42.181.658.261-.673.606-.437.966.243.35a2.92 2.92 0 0 0 .017.88c.022.114.2.15.257.042.173-.335.223-.701.279-1.07l.027.004c.218.321.453.642.774.859.105.071.211-.054.167-.156a3.434 3.434 0 0 0-.394-.658Zm9.171-32.718c.133.04.194-.16.061-.2-.133-.04-.116.183-.06.2Zm9.357-23.45c-.323.317-.807.326-1.114.667-.945 1.054-1.386 1.48-1.997 2.57-.044.079.067.2.138.148 3.77-2.736 2.55-2.386 3.12-3.228.067-.099-.06-.241-.147-.157Zm.07-5.058a.315.315 0 1 0-.603-.183.315.315 0 0 0 .603.183Zm-1.693 2.679c-1.367.556-2.571 1.312-3.792 2.112-1.195.784-2.5 1.4-3.738 2.11-.607.348.057 1.482.654 1.116 1.225-.75 2.338-1.673 3.497-2.522.52-.38 1.12-.608 1.585-1.057.594-.574 1.305-.995 1.94-1.512.12-.098 0-.306-.146-.247ZM74.455 55.951l-.015-.004c-.471 1.286-1.295 2.45-2.1 2.511l-.005.014c.494.485.633 1.84.37 3.131l.038.011c.481-1.21 1.36-2.285 2.054-2.41l.004-.012c-.535-.483-.672-1.925-.346-3.24Zm12.019-35.925c-.674-.125-1.338-.176-2.008-.221a.225.225 0 0 0-.155.044c-1.123-.066-2.235-.462-3.363-.611-.55-.073-1.21-.088-1.544-.14a6.47 6.47 0 0 1-.631 1.14c.674.123 1.411.026 1.99.004 1.44-.054 3.716.387 4.022.198.576.009 1.141-.04 1.717-.033.227.003.196-.34-.028-.381Zm-4.906 4.556c-.14.044-.26.063-.343.202-.087.148.044.332.18.4.178.09.32-.037.432-.143.166-.155-.052-.526-.269-.459Zm-3.824.41c-.221-.068-.322.267-.101.334.22.067.194-.307.101-.335Zm-5.8 24.386a1.083 1.083 0 1 0-.63 2.073 1.083 1.083 0 0 0 .63-2.073Zm-8.066 11.433c-.672-1.14-1.791-2.412-3.082-2.852a5.318 5.318 0 0 0-.656-.176l-.128-.024c-1.159-.206-2.434-.045-2.793 1.079.635.252 1.23.724 1.402.948-.076-.099.748-.191 1.453.127.63.285 1.236.721 1.476 1.396.021.061-.069.103-.109.058-.672-.766-1.756-1.692-2.821-1.06a.274.274 0 0 1-.331-.055c-.796-.94-2.302-1.81-3.05-.802-.068.09-.207.005-.15-.095.313-.547.79-.734 1.302-.71-.164-1.217-1.807-1.654-2.984-1.592-.799.042-1.799.42-2.304 1.014-.454.533-.308 1.258-.595 1.851-.103.212-.437.22-.579.054-.74-.866-1.816-1.31-2.925-.868a.259.259 0 0 1-.132.014c.064.381.096.766.098 1.139.002.191-.313.228-.337.035-.148-1.186-.479-2.494-1.277-3.424-.6-.698-1.651-1.652-2.677-1.327-1.668.53-2.143 2.942-1.42 4.38.634 1.261 1.884 1.421 2.69.84.244-.775.12-1.193-.366-1.257-.11.042-.205.038-.399-.015-.403-.102-.397-.764.025-.83 1.789-.273 2.427 2.484.56 2.884-2.177.468-3.359-1.4-3.372-3.348-.696-.53-1.544-1.223-2.474-.886-.538.194-1.505.792-1.178 1.534.163.372-.207.733-.57.53-.694-.385-1.456-1-2.25-1.133-1.544-.254-1.688.736-1.814 1.852-.032.287-.367.556-.644.344-.774-.591-2.549-1.433-2.871-.097 2.297.32 3.56 2.635 4.87 1.59.348-.278.652.023.877.408.487.822.358.733 1.887 1.463.571.27 1.174.537 1.79.68.84.192 1.887.193 2.15-.85.149-.59.098-1.276-.376-1.723-.586-.55-.928.016-.571.521.178.254-.178.483-.398.37-.535-.277-.923-1.063-.512-1.624.489-.669 1.18-.548 1.81-.126 1.359.913 1.265 3.067.049 3.948 1.19.248 2.112.946 3.356.33a.661.661 0 0 1 .267-.066c.017-.28.14-.577.321-.806.315-.4 1.414-1.373 1.925-.736.046.057.046.162-.033.195-.228.094-.48.03-.715.118-.7.254-1.097.95-1.056 1.356.469.286.708 1.064 2.4 2.144.843.538 3.708 2.205 4.959 1.531-.023-.053-.027-.114.01-.163.184-.25.563-.184.57-1.01.005-.582-.314-.933-.73-1.295-.09-.076.038-.23.132-.158.521.395.96.878 1.062 1.54h.003c2.532.429 5.08 3.888 7.806 2.67a.857.857 0 0 1 .474-.284c1.153-.924 1.166-2.908.17-4.033-.538-.606-1.47-1.167-2.288-.705-.59.332-1 .953-.113 1.245.496.164.268.915-.235.775-1.673-.462-1.26-2.43.271-2.799 2.852-.687 4.807 3.49 2.794 5.592.926.358 1.94 1.581 2.533.86.47-.57 1.364.12 1.816.356 1.389.738 2.141.848 3.19.918-.074-.075-.038-.212.08-.208.777.02 1.564.425 2.301.64.85.244.767.167.947.203-.138-.122-.653-.769-1.06-1.166-.804-.784-2.488-.389-2.06-1.927.398-1.441-.77-4.523-2.7-3.477a.4.4 0 0 1-.177.048c.096.554.016 1.108-.452 1.501a.118.118 0 0 1-.192-.121c.179-.688.515-.953.091-2.122-.158-.376-.406-.665-.825-.8-.304 1.022-.77 2.292-1.967 2.4-.362.032-.505-.567-.164-.697.912-.354 1.188-1.448 1.426-2.305.339-1.229.227-2.613-.431-3.729ZM5.198 92.078c.251-.466.58-.872.962-1.208L31.764 6.58a3.786 3.786 0 0 1 4.708-2.514L48.68 7.774c.169-.158.35-.303.541-.43L36.638 3.52a4.35 4.35 0 0 0-5.42 2.894L5.198 92.078Zm61.344 22.99a4.376 4.376 0 0 1-1.069 1.558l-.188.618a3.786 3.786 0 0 1-4.708 2.515L6.335 103.283a3.786 3.786 0 0 1-2.515-4.709l.154-.507a4.368 4.368 0 0 1-.128-1.54l-.57 1.882a4.35 4.35 0 0 0 2.893 5.419l54.242 16.476a4.35 4.35 0 0 0 5.42-2.894l.711-2.342Zm27.232-89.651a4.35 4.35 0 0 0-2.894-5.42l-12.717-3.863c.088.213.157.434.21.66l12.341 3.748a3.786 3.786 0 0 1 2.515 4.71L67.592 109.65c.14.604.155 1.248.021 1.89l26.16-86.124ZM14.348 88.499c.713.113 1.482-.178 2.155-.4.236-.077.494-.226.754-.359-.618.02-1.173.165-1.776.356-.47.148-.79.24-1.133.403Zm6.854-12.107c.304.786 1.486 2.765 1.663 3.051-.463-1.062-.794-2.205-1.462-3.557-.251-.51-.542-1.303-1.006-1.715-.042.73.194 1.433.437 2.123.448 1.268.705 2.045 1.469 3.008-.455-.964-.895-1.827-1.184-2.88-.013-.047.064-.077.083-.03ZM62.67 28.967c.06.06.19.01.158-.084-.792-2.238-3.336-3.612-5.256-4.73-.002-.002-.004.002-.002.004 3.841 3.11 3.482 3.187 5.1 4.81ZM36.768 53.762c-.319-.255-.817-.273-1.191-.431-.098-.042-.169.117-.077.168.349.196.825.422 1.232.383.066-.007.088-.078.036-.12Zm28.223-8.108c-.072-.079-.2.024-.256.075-.106.094.05.261.148.16.053-.055.19-.146.108-.235Zm-.684.468c-.068-.035-.125.008-.187.039-.094.046-.014.195.077.143.06-.034.127-.057.136-.134a.054.054 0 0 0-.026-.048Zm1.43-2.92c-.171.273-.356.297-.402.456a.075.075 0 0 0 .07.096c.178.004.427-.28.52-.433.076-.122-.112-.24-.188-.119Zm-2.476 3.279c-.122-.017-.124.153-.032.194.324.144.607.006.604-.121-.005-.189-.274-.031-.572-.073Zm-1.056.348c.205.137.684.371.892.234.044-.029.058-.085.02-.127-.133-.15-.374-.09-.784-.31-.135-.074-.258.116-.128.203Zm-2.122.407c-.2-.264-.543-.43-.81-.625-.304-.223-.602-.448-.947-.606-.043-.02-.096.03-.057.07.257.269.536.516.82.758.258.22.543.514.886.574.104.018.173-.085.108-.171Zm2.453.145c-.297-.3-1.067-.389-1.738-.963-.09-.077-.225.038-.14.129.462.486 1.363.97 1.816.97.068 0 .113-.085.062-.136Zm-1.187-.014c-.455-.352-.53-.202-1.832-1.147-.085-.06-.198.073-.118.141.53.449 1.19 1.07 1.91 1.142.079.008.093-.095.04-.136Zm-2.46-6.486a2.081 2.081 0 0 1-1.257-.254c-.279-.15-.441-.428-.745-.522-.073-.023-.17.035-.165.118.04.514.813 1.084 1.788.9-.605.462-.972 1.139-1.178 1.943-.018.072.088.105.111.033.357-1.095 1.315-1.772 2.39-2.073 1.213-.34 2.147-.004 2.754-.136.102-.022.116-.156.036-.21-.916-.619-2.865-.263-3.735.201Zm-3.55-.757c.018-.1-.118-.145-.154-.046-.078.213-.088.448.055.639.07.094.214 0 .191-.102-.036-.158-.123-.323-.092-.49Zm.493-.795c-.014-.066-.111-.105-.16-.049-.153.178-.126.47-.1.688.034.28.059.66.295.847.045.036.105 0 .123-.045.09-.229-.022-.498-.068-.727-.047-.235-.038-.484-.09-.714Zm.015-3.672c-.08.057-.075.175-.021.25-.09.204-.034.467.245.548.1.03.205.049.312.06-.1.508.12 1.054.542 1.402.003.003.006.003.01.005l.024.027a.28.28 0 0 0-.073.013l-.003-.001c-.041-.004-.107-.028-.154-.044-.116-.04-.267-.08-.361-.162-.062-.052-.177.01-.125.09.084.129.208.29.334.393-.255-.024-.502-.209-.706-.34-.04-.026-.085.028-.053.063.255.274.544.727.947.784-.032.113.059.243.086.338.001.078.01.151.034.214-.175-.029-.517-.093-.436-.182.027-.03-.003-.071-.04-.056a2.66 2.66 0 0 1-.194.077c-.103.025-.17.152-.112.248.232.38.741.387 1.088.638.3.218.64.497 1.034.414.05-.01.07-.09.02-.114-.17-.086-.334-.137-.467-.281-.24-.263-.368-.495-.531-.617.119-.164.05-.597.149-.94.013.082.119.152.198.078l.026-.02c.011.001-.002.003.033 0l.017.026c.02.032.038.066.057.1.007.011.034.088.03.049.024.28-.053.561-.138.293-.025-.078-.126-.063-.138.014-.018.127.05.318.212.306.182-.014.271-.118.312-.29a.882.882 0 0 0 .023-.194.138.138 0 0 0 .065-.018c.148.124.192.248.207.272-.095.195-.308.428-.497.415-.035-.002-.047.046-.02.064.274.177.678-.297.768-.523.037-.093.086-.264.1-.43.318.177.609.446.829.747a.245.245 0 0 0-.112.091c.033-.05-.008.005-.018.014-.02.018-.041.034-.062.051-.051.044-.123.074-.199.122-.177.113-.343.252-.509.38-.048.039 0 .112.053.1.193-.04.38-.124.565-.192.08-.03.163-.047.241-.078a1 1 0 0 1 .08-.03.241.241 0 0 0 .205-.05c.037.079.06.142.145.114-.01.047.013.101.065.119.187.061.33.202.518.261.06.02.086-.07.028-.094-.124-.05-.222-.214-.34-.304.349.17.728.301 1.117.305.057 0 .066-.076.016-.095-.397-.15-.78-.3-1.153-.504-.286-.157-.428-.481-.631-.74a2.29 2.29 0 0 0-.771-.7 1.97 1.97 0 0 0-1.07-.249.271.271 0 0 0-.201-.123c-.074-.007-.154-.037-.225-.059-.084-.025-.172-.032-.254-.061a.097.097 0 0 0-.084.01c-.268-.349-.364-.71-.25-1.132 1.021.005 2.233-.537 3.11-.136.333.247.6.59.837.924.268.377.63.83.8 1.25.023.06.12.011.088-.047-.299-.553-.378-1.224-.665-1.802a3.186 3.186 0 0 0-1.3-1.333c-1.045-.578-2.71-.41-3.657.273Zm.614-6.03c-.047-.084-.178-.015-.131.07.07.128.178.249.273.36.023.027.063.007.066-.025.012-.17-.131-.271-.208-.406Zm-1.622 11.39c-.01.039-.021.075-.013.116.013.058.09.082.133.04.03-.029.04-.066.055-.104.04-.11-.147-.168-.175-.053Zm3.29-3.525c-.07-.002-.095.09-.039.127.473.309 1.252.456 1.857 1.298.03.04.094-.008.07-.05-.383-.664-1.068-1.345-1.888-1.374ZM47.839 53.4c-.267-.04-.568.147-.804.257-.496.23-.487.066-1.084.276-.147.052-.101.28.057.241.38-.092.702-.304 1.091-.346.265-.029.63-.105.79-.332.03-.043-.008-.09-.05-.096Zm-2.668.676c-.1-.068-.212.03-.497.122-.063.02-.061.123.012.12.152-.004.47-.02.514-.166a.068.068 0 0 0-.029-.076Zm-.807.228c-.341-.001-.66.066-.997.121-.416.069-.82-.006-1.234.041-.953.109-1.925.123-2.876-.023-.032-.004-.038.046-.01.055.903.27 1.752.402 2.695.446.432.02.83-.12 1.246-.219.414-.098.813-.149 1.194-.343.037-.019.023-.078-.018-.078Zm12.195 6.543.035-.027c-1.746-.464-4.829.04-5.386 2.653-1.155-1.16-2.935-2.688-4.207-1.105-.1.123.072.258.19.206 1.035-.457 1.698-.437 2.564.32.537.468.915 1.088 1.455 1.558.286.248.726-.027.55-.392-.177-.368-.176-.706-.057-1.01.383-.984 2.5-2.121 4.33-1.757l.002-.002c.777.14 1.2.632 1.247 1.282.044.618-.422.799-.927.678-.08-.02-.156.079-.09.144.772.754 1.605-.28 1.531-1.11-.056-.642-.643-1.233-1.237-1.438Zm-2.498-4.808c-.255-.06-.368.103-.283.143.076.035.151.014.23.034.114.03.169-.15.053-.177Zm9.795-25.146c.229.277.362.496.469.843.064.21.116.432.24.614.046.068.138.046.149-.035.058-.448-.303-.842-.51-1.207-.112-.2-.161-.418-.297-.606-.187-.259-.383-.513-.558-.78-.06-.093-.207-.019-.153.082.199.37.392.763.66 1.089Zm1.492 12.172c-.035.079.067.139.13.108.543-.265.796-1.087.904-1.632.03-.15-.192-.225-.233-.071-.262.976-.628 1.214-.801 1.595Zm.408-7.623c.026.022.075.002.082-.03.025-.126-.025-.257-.068-.374-.047-.132-.094-.264-.147-.394-.032-.081-.168-.029-.142.054.123.395.12.616.275.744Zm-.02 5.982c-.006.099.15.159.196.06.591-1.28.297-2.919-.136-4.198-.04-.116-.222-.077-.189.045.38 1.404.194 2.68.128 4.093Zm-.779-8.192c.067.072.113.15.152.24.033.075.062.158.124.214.028.026.08.022.09-.02.05-.202-.1-.42-.243-.547-.079-.071-.197.033-.123.113ZM52.898 22.197c.256.087.512.167.772.238.265.072.54.186.817.171.083-.004.115-.104.046-.154-.259-.19-.557-.192-1.575-.453-.129-.033-.187.155-.06.198Zm-2.648 1.27c.233.192.478.367.725.541.27.19.537.417.832.563.065.032.158-.03.112-.104-.332-.542-1.064-.807-1.568-1.16-.103-.072-.193.085-.101.16Zm-.77-1.867c.248-.017.522-.023.752-.125.05-.022.041-.104-.011-.117-.248-.06-.514.015-.762.042-.114.013-.093.208.02.2Z" fill="#A25A44"/><path d="m55.234 9.264 1.506.458s-.273-.032-.03.72l.56 1.712 1.41-1.114c.62-.49.383-.612.383-.612l.996.302s-.333-.058-.976.45l-1.7 1.334.865 2.654c.241.76.543.894.543.894l-1.506-.458s.286.044.043-.707l-.61-1.856-1.532 1.206c-.62.489-.357.611-.357.611l-1.005-.305s.326.056.956-.438l1.824-1.435-.809-2.5c-.26-.781-.561-.916-.561-.916Zm5.41 2.364.277 4.335c.048.717.381.861.381.861l.644.196 3.1-4.055c.423-.549.741-.495.741-.495l-.996-.303s.262.123-.164.68c-.034.044-2.72 3.547-2.762 3.591-.037-.215.004.144-.298-4.521-.045-.7.242-.655.242-.655l-1.507-.458s.294.132.342.824Zm3.71 6.123 1.507.458s-.286-.13-.098-.75l1.182-3.891c.196-.644.506-.593.506-.593l-1.507-.457s.268.133.08.753l-1.185 3.9c-.19.627-.485.58-.485.58Zm1.664.506 1.506.457s-.286-.13-.098-.75l1.182-3.891c.196-.644.506-.592.506-.592l-1.507-.458s.269.133.08.753l-1.184 3.9c-.191.627-.485.58-.485.58Zm1.663.505 1.507.458s-.287-.13-.098-.75l1.182-3.892c.195-.643.505-.592.505-.592l-1.506-.458s.268.133.08.753l-1.185 3.9c-.19.628-.485.581-.485.581Zm4.607-.54.02.005c.201-.451.622-.83.991-.845l.002-.005c-.346-.24-.445-.848-.346-1.29l-.009-.003c-.171.432-.549.9-1.01.883l-.002.006c.333.246.42.831.354 1.248Zm2.675.812.02.006c.201-.452.622-.831.991-.846l.002-.005c-.353-.244-.442-.862-.347-1.29l-.008-.003c-.171.433-.549.9-1.01.884l-.002.005c.333.246.42.832.354 1.249ZM50.02 11.457l.02.006c.201-.451.622-.83.991-.845l.002-.005c-.346-.24-.445-.848-.346-1.29l-.009-.003c-.171.432-.549.9-1.01.883l-.002.006c.333.246.42.831.354 1.248Zm2.675.813.02.006c.2-.452.622-.831.991-.846l.002-.005c-.346-.24-.445-.848-.347-1.29l-.008-.003c-.172.433-.549.9-1.01.884l-.002.005c.332.246.42.832.354 1.249ZM15.5 95.016l.386-1.27 5.152 1.565-.395 1.268s.037-.914-1.648-1.555c-.283.406-.236.628-1.719 5.385-.245.808.103.968.103.968l-1.836-.558s.363.046.599-.733c1.465-4.92 1.606-5.074 1.572-5.451-1.737-.4-2.214.381-2.214.381Zm3.734 6.924 1.835.558s-.348-.16-.112-.938l.446-1.468 2.84.862-.443 1.458c-.24.788-.609.73-.609.73l1.836.558s-.339-.157-.102-.935l1.484-4.887c.245-.808.614-.75.614-.75l-1.835-.557s.335.166.099.945l-.916 3.014-2.84-.862.91-2.995c.246-.808.624-.747.624-.747l-1.835-.557s.326.163.09.942l-1.488 4.896c-.24.788-.598.733-.598.733Zm6.583 1.085c-.24.788-.599.733-.599.733l4.713 1.431.377-1.273s-.548.909-2.632.276l-.813-.246c-.028-.454.136-.641.977-3.524l.44.133c1.51.459 1.587.859 1.587.859l.284-.936s-.287.29-1.797-.169l-.44-.133c.448-1.385.515-1.906.769-2.22l.812.246c2.084.633 2.037 1.684 2.037 1.684l.395-1.268-4.713-1.431s.326.163.09.942l-.017.054-1.47 4.842Zm7.408 2.25c1.832-4.833 1.83-4.88 1.94-5.081.045.394.015.254.12 6.622.564.171.787-.116.92-.313 3.37-4.868 3.258-4.727 3.398-4.897-.06.381-.016.09-1.206 5.24-.182.806-.55.748-.55.748l1.835.557s-.339-.156-.16-.952l1.16-4.985c.188-.826.556-.768.556-.768l-2.14-.65s.338.157-.166.886l-2.548 3.681-.061-4.474c-.023-.889.346-.831.346-.831l-2.18-.662s.34.157.036.948l-1.809 4.787c-.284.764-.663.703-.663.703l1.215.369s-.34-.157-.043-.928Zm7.639-.327c.798-2.628 4.04-3.308 5.82-1.492a3.484 3.484 0 0 1 1.707.088c1.845.56 2.879 2.521 2.31 4.392-.781 2.573-4 3.359-5.824 1.47-2.51.566-4.803-1.856-4.013-4.458Zm6.157-1.088c1.343 1.836.593 4.501-1.523 5.359 1.306 1.613 3.435.448 4.09-1.707.675-2.222-.536-4.393-2.567-3.652Zm-.537.256c-1.522.956-2.061 2.969-1.365 4.492 1.473-.887 1.691-3.779 1.365-4.492Zm-4.459 1.099c-.655 2.157.468 4.307 2.45 3.693-1.282-1.891-.422-4.522 1.715-5.301-1.333-1.776-3.51-.549-4.164 1.608Zm8.482 5.321c-.236.778-.605.72-.605.72l1.214.368s-.339-.156-.1-.944l.028-.091c1.57-5.166 1.478-4.884 1.511-4.941.301 1.273 1.146 4.964 1.592 6.897l.497.151 1.725-5.68.016-.054c.237-.778.608-.73.608-.73l-1.214-.369s.349.16.103.968l-1.131 3.724-1.033-4.403c-.203-.912.13-.875.13-.875l-1.95-.593s.339.157.093.965l-.016.054-1.468 4.833Zm10.482 2.801c.941.286 1.944-.269 2.239-1.24.294-.97-.23-1.989-1.172-2.275-.942-.286-1.944.269-2.239 1.239-.295.971.23 1.99 1.172 2.276Zm-51.29-15.58c.941.286 1.944-.269 2.238-1.24.295-.97-.23-1.989-1.171-2.274-.942-.287-1.944.268-2.239 1.239-.295.97.23 1.989 1.171 2.275Z" fill="#A25A44"/></svg>