<svg xmlns="http://www.w3.org/2000/svg" width="212" height="303" fill="none"><path fill="#CB9470" d="M167.395 255.276c2.206-.121 4.443-1.648 5.014-3.534l.023.001c.452 1.856 2.479 3.476 4.575 3.874l-.004.113c-2.145.282-4.243 1.746-4.832 3.517l-.023-.001c-.393-2.216-2.542-3.614-4.755-3.925l.002-.045ZM139.16 260.438c2.207-.121 4.444-1.648 5.015-3.533v-.001l.022.001c.452 1.856 2.479 3.476 4.576 3.874l-.005.113c-2.144.282-4.243 1.746-4.832 3.517l-.023-.001c-.393-2.216-2.542-3.614-4.755-3.925l.002-.045ZM101.24 233.409c2.142-.117 4.315-1.6 4.869-3.43h.022c.439 1.803 2.407 3.376 4.443 3.762l-.005.11c-2.082.274-4.12 1.695-4.692 3.415l-.022-.001c-.381-2.152-2.468-3.51-4.617-3.812l.002-.044ZM37.097 199.544c3.214-.176 6.472-2.4 7.304-5.146l.033.001c.658 2.703 3.61 5.063 6.664 5.642l-.006.165c-3.124.411-6.18 2.543-7.039 5.123l-.033-.001c-.572-3.229-3.702-5.265-6.926-5.718l.003-.066ZM18.135 206.656c1.83-.1 3.685-1.366 4.158-2.93l.02.001c.374 1.539 2.055 2.883 3.793 3.212l-.004.094c-1.778.234-3.518 1.448-4.007 2.917l-.019-.001c-.325-1.838-2.107-2.997-3.942-3.255v-.038ZM159.11 165.502c2.143-.117 4.315-1.6 4.869-3.431l.022.001c.439 1.802 2.407 3.375 4.443 3.761l-.004.11c-2.083.274-4.12 1.696-4.692 3.416l-.023-.001c-.381-2.153-2.468-3.51-4.617-3.812l.002-.044ZM176.147 44.643c2.143-.117 4.315-1.6 4.869-3.43h.022c.439 1.802 2.407 3.376 4.443 3.761l-.004.11c-2.083.274-4.121 1.696-4.693 3.416h-.022c-.381-2.154-2.468-3.511-4.617-3.813l.002-.044ZM201.889 23.03c2.143-.117 4.315-1.6 4.869-3.43h.022c.439 1.803 2.407 3.376 4.443 3.762l-.004.11c-2.083.274-4.121 1.695-4.693 3.415h-.022c-.381-2.153-2.468-3.51-4.617-3.813l.002-.044ZM190.718 9.508c1.607-.088 3.236-1.2 3.651-2.573h.017c.329 1.352 1.805 2.532 3.332 2.822l-.003.082c-1.562.206-3.09 1.272-3.519 2.562h-.017c-.286-1.615-1.851-2.633-3.463-2.86l.002-.033ZM162.741 234.18c2.143-.118 4.315-1.6 4.869-3.431l.022.001c.439 1.802 2.408 3.375 4.443 3.761l-.004.11c-2.083.274-4.12 1.695-4.692 3.415l-.022-.001c-.382-2.152-2.469-3.51-4.617-3.811l.001-.044ZM182.236 301.625c-.237.074-.393.068-.468-.018-.244-1.78-.546-3.12-.904-4.019-.356-.899-.995-1.577-1.916-2.033a13.733 13.733 0 0 0-2.948-1.06 70.112 70.112 0 0 0-3.198-.69c-1.298-.407-1.675-.19-3.623-.264-.074-.088-.106-.301-.093-.636 1.252-.038 2.504-.053 3.752-.048 8.345.024 9.402-5.24 9.713-5.767.21-.504.521-1.387.54-1.877.022-.59.1-.546.229.135-.045 1.201-.28 1.746.017 2.657l-.01.253c.215.513.718 1.166 1.509 1.954.791.79 2.111 1.513 3.961 2.174 4.932 1.261 5.004 1.328 5.81 1.359a5.5 5.5 0 0 1 1.165.17l-.024.632c-.838-.031-.924.091-1.76.06-3.061.133-4.007-.244-5.876.41a11.857 11.857 0 0 0-4.005 2.062c-1.166.924-1.75 2.4-1.749 4.424-.077-.003-.119.037-.122.122ZM159.705 194.089c-.153.048-.253.044-.302-.011-.157-1.147-.351-2.011-.582-2.591-.229-.579-.641-1.016-1.234-1.31a8.908 8.908 0 0 0-1.901-.683 45.836 45.836 0 0 0-2.06-.445c-.837-.262-1.08-.122-2.335-.169-.048-.057-.068-.194-.06-.411a72.27 72.27 0 0 1 2.418-.03c5.378.015 6.059-3.377 6.259-3.717.135-.324.336-.893.348-1.209.014-.381.064-.352.148.087-.029.774-.18 1.125.011 1.712l-.006.163c.138.331.462.751.972 1.259.509.509 1.36.975 2.553 1.401 3.178.813 3.224.856 3.743.876.251.009.501.046.752.11l-.016.407c-.54-.02-.595.059-1.134.038-1.973.086-2.583-.156-3.787.265a7.64 7.64 0 0 0-2.581 1.328c-.752.596-1.128 1.547-1.127 2.852-.05-.002-.077.024-.079.078ZM171.604 85.498c-.153.048-.253.044-.301-.011-.158-1.147-.352-2.01-.583-2.59-.229-.58-.641-1.017-1.234-1.31a8.884 8.884 0 0 0-1.9-.684c-.674-.162-1.36-.31-2.061-.445-.837-.262-1.08-.122-2.335-.17-.047-.056-.068-.193-.06-.41a70.732 70.732 0 0 1 2.418-.03c5.378.015 6.059-3.377 6.26-3.717.134-.324.335-.893.347-1.21.015-.38.065-.351.148.088-.029.773-.18 1.125.011 1.712l-.006.163c.138.33.462.751.972 1.26.509.508 1.36.974 2.553 1.4 3.178.813 3.224.856 3.743.876.251.01.502.046.752.11l-.016.407c-.54-.02-.595.059-1.134.038-1.973.086-2.583-.156-3.787.265a7.65 7.65 0 0 0-2.581 1.328c-.752.596-1.128 1.547-1.127 2.852-.05-.002-.077.024-.079.078ZM176.262 29.59c-.151.052-.251.052-.302 0-.2-1.141-.427-1.997-.68-2.567-.251-.57-.679-.992-1.283-1.263a8.865 8.865 0 0 0-1.925-.61 45.834 45.834 0 0 0-2.075-.367c-.846-.23-1.084-.081-2.34-.081-.05-.055-.076-.192-.076-.408a70.9 70.9 0 0 1 2.416-.122c5.374-.188 5.926-3.604 6.114-3.95.122-.33.302-.906.302-1.223 0-.38.051-.353.151.082 0 .774-.138 1.13.075 1.71v.163c.151.326.491.734 1.019 1.222.529.49 1.397.923 2.604 1.304 3.207.691 3.255.733 3.774.733.252 0 .503.027.755.081v.408c-.541 0-.593.081-1.132.081-1.968.16-2.586-.059-3.774.407-.955.326-1.798.801-2.529 1.426-.728.623-1.068 1.588-1.019 2.892-.049 0-.075.027-.075.081ZM206.063 48.658c-.077.024-.127.022-.151-.006-.079-.576-.177-1.01-.293-1.302a1.22 1.22 0 0 0-.62-.658 4.483 4.483 0 0 0-.955-.343 23.35 23.35 0 0 0-1.036-.224c-.42-.132-.542-.061-1.173-.085-.024-.029-.035-.098-.03-.206.405-.012.81-.017 1.215-.016 2.702.008 3.044-1.697 3.145-1.867.068-.163.169-.45.175-.608.007-.191.032-.177.074.044-.014.389-.09.565.006.86l-.003.082c.069.166.232.377.488.633.256.255.684.49 1.283.704 1.597.408 1.62.43 1.881.44.127.005.252.023.378.055l-.008.205c-.271-.01-.299.03-.57.019-.991.043-1.298-.079-1.903.133a3.843 3.843 0 0 0-1.297.668c-.378.299-.567.777-.566 1.432-.025 0-.039.012-.04.04ZM7.182 198.461c-.062.024-.103.023-.122-.005-.06-.572-.136-1.003-.228-1.292a1.126 1.126 0 0 0-.498-.651 3.17 3.17 0 0 0-.772-.335c-.274-.078-.552-.15-.837-.215-.34-.128-.44-.057-.95-.076-.02-.029-.027-.097-.023-.205.328-.015.657-.023.985-.024 2.189-.011 2.478-1.709 2.561-1.88.056-.162.14-.448.146-.606.007-.19.027-.176.06.043-.015.387-.078.563-.002.856l-.003.082c.055.165.186.374.391.626.206.252.55.482 1.035.691 1.291.395 1.31.417 1.521.425.102.003.204.021.306.052l-.008.204c-.22-.009-.243.031-.462.023-.804.049-1.051-.07-1.543.145a3.014 3.014 0 0 0-1.055.673c-.309.301-.465.778-.47 1.43-.02-.001-.03.012-.032.039Z"/><path stroke="#CB9470" stroke-width=".8" d="m177.858 287.502-29.868-23.718M140.074 256.864l-29.611-20.203M101.336 230.863l-49.971-27.594M34.072 197.162l-23.26-2.827M18.207 204.74l-8.32-6.546M27.87 206.663l9.106-3.939M181.864 284.538l-9.198-24.493M170.268 251.387l-1.892-11.755M166.411 229.822l-6.152-32.946M160.459 181.306l2.371-11.203M164.365 160.425l6.641-72.573M173.929 72.385l5.116-22.004M178.635 40.63l-3.176-8.688M185.011 47.102l17.11.648M207.772 42.512l.559-14.778M205.155 19.047l-6.316-8.028M178.697 18.435l10.853-8.936"/></svg>