<svg xmlns="http://www.w3.org/2000/svg" width="204" height="187" fill="none"><path stroke="#CB9470" stroke-linecap="round" stroke-width=".776" d="m101.671 109.432 5.433 54.717M16.104 16.686l58.985 39M87.507 70.627l6.985 18.627M108.074 101.671l80.134 35.313"/><path fill="#CB9470" d="M81.714 55.492c.305 3.285 2.71 6.536 5.554 7.281v.034c-2.743.779-5.046 3.894-5.52 7.044h-.169c-.542-3.184-2.844-6.231-5.52-7.01v-.034c3.285-.711 5.249-3.996 5.588-7.315h.067ZM100.374 89.253c.37 3.98 3.283 7.92 6.73 8.823v.04c-3.324.945-6.114 4.72-6.688 8.536h-.206c-.656-3.857-3.446-7.55-6.688-8.494v-.041c3.98-.862 6.36-4.842 6.77-8.864h.082ZM.058 12.527c-.077-.218-.077-.362 0-.435 1.645-.29 2.88-.617 3.704-.982.822-.362 1.43-.98 1.821-1.851.393-.872.687-1.798.882-2.778.196-.98.372-1.977.529-2.996.332-1.22.117-1.563.117-3.376C7.19.037 7.387 0 7.699 0c.079 1.163.137 2.325.176 3.486.271 7.755 5.201 8.552 5.702 8.823.475.177 1.306.435 1.763.435.55 0 .51.074-.118.218-1.117 0-1.632-.198-2.468.11h-.235c-.47.217-1.059.707-1.764 1.47-.706.763-1.331 2.015-1.88 3.758-.999 4.627-1.059 4.696-1.059 5.446 0 .363-.039.726-.117 1.09H7.11c0-.78-.118-.856-.118-1.634-.231-2.84.086-3.733-.587-5.446a11.026 11.026 0 0 0-2.058-3.65c-.9-1.051-2.292-1.541-4.173-1.47 0-.071-.039-.109-.117-.109ZM188.266 140.974c-.077-.217-.077-.362 0-.435 1.645-.29 2.88-.617 3.704-.981.822-.363 1.43-.981 1.821-1.852.393-.872.687-1.797.882-2.778.197-.98.373-1.977.529-2.995.332-1.221.117-1.564.117-3.377.079-.071.276-.109.588-.109.079 1.163.138 2.325.176 3.486.272 7.756 5.201 8.552 5.702 8.823.475.177 1.307.436 1.763.436.549 0 .511.073-.117.218-1.118 0-1.633-.199-2.469.109h-.235c-.47.218-1.059.708-1.763 1.47-.706.763-1.332 2.015-1.881 3.758-.999 4.628-1.058 4.697-1.058 5.447 0 .362-.039.725-.118 1.089h-.588c0-.781-.117-.856-.117-1.634-.232-2.84.085-3.732-.588-5.446a11.038 11.038 0 0 0-2.057-3.649c-.9-1.052-2.293-1.542-4.173-1.471 0-.071-.039-.109-.118-.109ZM114.156 176.847c.061-.173.061-.288 0-.347-1.311-.23-2.295-.491-2.952-.781-.655-.289-1.14-.781-1.451-1.476a10.262 10.262 0 0 1-.703-2.213 51.981 51.981 0 0 1-.421-2.388c-.265-.972-.094-1.246-.094-2.69-.063-.057-.22-.087-.468-.087-.063.926-.11 1.853-.141 2.778-.216 6.18-4.144 6.815-4.543 7.031-.379.141-1.041.347-1.405.347-.438 0-.407.058.094.173.89 0 1.3-.158 1.967.087h.187c.374.174.843.564 1.405 1.172.563.608 1.061 1.606 1.499 2.995.795 3.687.843 3.742.843 4.34 0 .289.031.578.094.868h.469c0-.622.093-.682.093-1.302.184-2.263-.068-2.974.468-4.34a8.783 8.783 0 0 1 1.64-2.908c.717-.838 1.826-1.229 3.325-1.172 0-.057.031-.087.094-.087Z"/></svg>